<svg width="247" height="34" viewBox="0 0 247 34" fill="none" xmlns="http://www.w3.org/2000/svg">
<path d="M18 33H34V30.414H26.723C24.1287 32.106 21.0973 33.0047 18 33ZM18 27.182C17.1431 27.1809 16.3217 26.8401 15.7158 26.2342C15.1099 25.6283 14.7691 24.8069 14.768 23.95C14.7685 23.0928 15.1091 22.2708 15.7151 21.6645C16.321 21.0582 17.1428 20.7171 18 20.716V13.282C17.1431 13.2809 16.3217 12.9401 15.7158 12.3342C15.1099 11.7283 14.7691 10.9069 14.768 10.05C14.7688 9.19297 15.1095 8.37126 15.7154 7.76515C16.3214 7.15905 17.143 6.81806 18 6.817V1C9.163 1 2 8.163 2 17C2 25.837 9.163 33 18 33V27.182V27.182ZM11.05 20.232C10.1931 20.2309 9.37169 19.8901 8.7658 19.2842C8.15991 18.6783 7.81906 17.8569 7.818 17C7.81906 16.1431 8.15991 15.3217 8.7658 14.7158C9.37169 14.1099 10.1931 13.7691 11.05 13.768C11.9072 13.7685 12.7292 14.1091 13.3355 14.7151C13.9418 15.321 14.2829 16.1428 14.284 17C14.2829 17.8569 13.9421 18.6783 13.3362 19.2842C12.7303 19.8901 11.9089 20.2309 11.052 20.232H11.05Z" fill="#E30B13"/>
<path d="M34 17C34 8.163 26.837 1 18 1V6.818C18.8569 6.81906 19.6783 7.15991 20.2842 7.7658C20.8901 8.37169 21.2309 9.19315 21.232 10.05C21.2315 10.9072 20.8909 11.7292 20.2849 12.3355C19.679 12.9418 18.8572 13.2829 18 13.284V20.718C18.857 20.7191 19.6786 21.0601 20.2846 21.6662C20.8905 22.2723 21.2312 23.094 21.232 23.951C21.2304 24.8075 20.8893 25.6285 20.2835 26.2339C19.6777 26.8394 18.8565 27.1799 18 27.181V33C21.218 33 24.214 32.05 26.723 30.414C31.103 27.56 34 22.618 34 17ZM24.95 13.768C25.8067 13.7693 26.6279 14.1103 27.2336 14.7162C27.8392 15.322 28.1799 16.1433 28.181 17C28.1799 17.8569 27.8391 18.6783 27.2332 19.2842C26.6273 19.8901 25.8059 20.2309 24.949 20.232C24.092 20.2312 23.2703 19.8905 22.6642 19.2846C22.058 18.6786 21.7171 17.857 21.716 17C21.7171 16.143 22.058 15.3214 22.6642 14.7154C23.2703 14.1095 24.092 13.7688 24.949 13.768H24.95Z" fill="#CE080F"/>
<path d="M37.8362 25V9.6H40.7842L47.3402 20.468H45.7782L52.2242 9.6H55.1502L55.1942 25H51.8502L51.8282 14.726H52.4442L47.2962 23.372H45.6902L40.4322 14.726H41.1802V25H37.8362Z" fill="white"/>
<path d="M66.1079 25.264C64.8906 25.264 63.7612 25.066 62.7199 24.67C61.6932 24.274 60.7986 23.7167 60.0359 22.998C59.2879 22.2793 58.7012 21.436 58.2759 20.468C57.8652 19.5 57.6599 18.444 57.6599 17.3C57.6599 16.156 57.8652 15.1 58.2759 14.132C58.7012 13.164 59.2952 12.3207 60.0579 11.602C60.8206 10.8833 61.7152 10.326 62.7419 9.93C63.7686 9.534 64.8832 9.336 66.0859 9.336C67.3032 9.336 68.4179 9.534 69.4299 9.93C70.4566 10.326 71.3439 10.8833 72.0919 11.602C72.8546 12.3207 73.4486 13.164 73.8739 14.132C74.2992 15.0853 74.5119 16.1413 74.5119 17.3C74.5119 18.444 74.2992 19.5073 73.8739 20.49C73.4486 21.458 72.8546 22.3013 72.0919 23.02C71.3439 23.724 70.4566 24.274 69.4299 24.67C68.4179 25.066 67.3106 25.264 66.1079 25.264ZM66.0859 22.228C66.7752 22.228 67.4059 22.1107 67.9779 21.876C68.5646 21.6413 69.0779 21.304 69.5179 20.864C69.9579 20.424 70.2952 19.9033 70.5299 19.302C70.7792 18.7007 70.9039 18.0333 70.9039 17.3C70.9039 16.5667 70.7792 15.8993 70.5299 15.298C70.2952 14.6967 69.9579 14.176 69.5179 13.736C69.0926 13.296 68.5866 12.9587 67.9999 12.724C67.4132 12.4893 66.7752 12.372 66.0859 12.372C65.3966 12.372 64.7586 12.4893 64.1719 12.724C63.5999 12.9587 63.0939 13.296 62.6539 13.736C62.2139 14.176 61.8692 14.6967 61.6199 15.298C61.3852 15.8993 61.2679 16.5667 61.2679 17.3C61.2679 18.0187 61.3852 18.686 61.6199 19.302C61.8692 19.9033 62.2066 20.424 62.6319 20.864C63.0719 21.304 63.5852 21.6413 64.1719 21.876C64.7586 22.1107 65.3966 22.228 66.0859 22.228Z" fill="white"/>
<path d="M76.9704 25V9.6H83.6364C85.0151 9.6 86.2031 9.82733 87.2004 10.282C88.1977 10.722 88.9677 11.36 89.5104 12.196C90.0531 13.032 90.3244 14.0293 90.3244 15.188C90.3244 16.332 90.0531 17.322 89.5104 18.158C88.9677 18.9793 88.1977 19.61 87.2004 20.05C86.2031 20.49 85.0151 20.71 83.6364 20.71H78.9504L80.5344 19.148V25H76.9704ZM86.7604 25L82.9104 19.412H86.7164L90.6104 25H86.7604ZM80.5344 19.544L78.9504 17.872H83.4384C84.5384 17.872 85.3597 17.6373 85.9024 17.168C86.4451 16.684 86.7164 16.024 86.7164 15.188C86.7164 14.3373 86.4451 13.6773 85.9024 13.208C85.3597 12.7387 84.5384 12.504 83.4384 12.504H78.9504L80.5344 10.81V19.544Z" fill="white"/>
<path d="M96.2061 15.804H103.62V18.576H96.2061V15.804ZM96.4701 22.14H104.852V25H92.9281V9.6H104.566V12.46H96.4701V22.14Z" fill="white"/>
<path d="M106.356 20.182V17.432H112.582V20.182H106.356Z" fill="white"/>
<path d="M122.739 25.264C121.551 25.264 120.444 25.0733 119.417 24.692C118.405 24.296 117.525 23.7387 116.777 23.02C116.029 22.3013 115.442 21.458 115.017 20.49C114.606 19.522 114.401 18.4587 114.401 17.3C114.401 16.1413 114.606 15.078 115.017 14.11C115.442 13.142 116.029 12.2987 116.777 11.58C117.54 10.8613 118.427 10.3113 119.439 9.93C120.451 9.534 121.558 9.336 122.761 9.336C124.096 9.336 125.298 9.57067 126.369 10.04C127.454 10.4947 128.364 11.1693 129.097 12.064L126.809 14.176C126.281 13.5747 125.694 13.1273 125.049 12.834C124.404 12.526 123.7 12.372 122.937 12.372C122.218 12.372 121.558 12.4893 120.957 12.724C120.356 12.9587 119.835 13.296 119.395 13.736C118.955 14.176 118.61 14.6967 118.361 15.298C118.126 15.8993 118.009 16.5667 118.009 17.3C118.009 18.0333 118.126 18.7007 118.361 19.302C118.61 19.9033 118.955 20.424 119.395 20.864C119.835 21.304 120.356 21.6413 120.957 21.876C121.558 22.1107 122.218 22.228 122.937 22.228C123.7 22.228 124.404 22.0813 125.049 21.788C125.694 21.48 126.281 21.018 126.809 20.402L129.097 22.514C128.364 23.4087 127.454 24.0907 126.369 24.56C125.298 25.0293 124.088 25.264 122.739 25.264Z" fill="white"/>
<path d="M131.284 25V9.6H134.848V25H131.284Z" fill="white"/>
<path d="M138.283 25V9.6H141.231L150.317 20.688H148.887V9.6H152.407V25H149.481L140.373 13.912H141.803V25H138.283Z" fill="white"/>
<path d="M159.108 15.804H166.522V18.576H159.108V15.804ZM159.372 22.14H167.754V25H155.83V9.6H167.468V12.46H159.372V22.14Z" fill="white"/>
<path d="M170.37 25V9.6H173.318L179.874 20.468H178.312L184.758 9.6H187.684L187.728 25H184.384L184.362 14.726H184.978L179.83 23.372H178.224L172.966 14.726H173.714V25H170.37Z" fill="white"/>
<path d="M189.138 25L196.002 9.6H199.522L206.408 25H202.668L197.036 11.404H198.444L192.79 25H189.138ZM192.57 21.7L193.516 18.994H201.436L202.404 21.7H192.57Z" fill="white"/>
<path d="M208.841 25.176C208.255 25.176 207.749 24.978 207.323 24.582C206.913 24.1713 206.707 23.6507 206.707 23.02C206.707 22.3893 206.913 21.8833 207.323 21.502C207.749 21.106 208.255 20.908 208.841 20.908C209.443 20.908 209.949 21.106 210.359 21.502C210.77 21.8833 210.975 22.3893 210.975 23.02C210.975 23.6507 210.77 24.1713 210.359 24.582C209.949 24.978 209.443 25.176 208.841 25.176Z" fill="white"/>
<path d="M216.513 25V12.504H211.585V9.6H225.005V12.504H220.077V25H216.513Z" fill="white"/>
<path d="M231.022 25L224.378 9.6H228.228L234.036 23.24H231.77L237.666 9.6H241.208L234.542 25H231.022Z" fill="white"/>
<path d="M208.7 25.048C209.888 25.048 210.856 24.256 210.856 23.046C210.856 21.814 209.888 21 208.7 21C207.468 21 206.5 21.814 206.5 23.046C206.5 24.256 207.468 25.048 208.7 25.048Z" fill="#E30B13"/>
</svg>
